<?xml version="1.0" encoding="UTF-8"?>
<svg width="976px" height="224px" viewBox="0 0 976 224" version="1.1" xmlns="http://www.w3.org/2000/svg" xmlns:xlink="http://www.w3.org/1999/xlink">
    <!-- Generator: Sketch 55.2 (78181) - https://sketchapp.com -->
    <title>sagrosso-color-darkbg-centrado</title>
    <desc>Created with Sketch.</desc>
    <g id="Page-1" stroke="none" stroke-width="1" fill="none" fill-rule="evenodd">
        <g id="sagrosso-color-darkbg-centrado">
            <path d="M845.45,190.14 C845.45,196.81 842.69,199.56 838.1,199.56 C833.04,199.56 830.1,196.56 830.1,189.91 L830.1,74.08 C830.1,67.19 833.31,64.43 837.91,64.43 C841.59,64.43 845.49,67.19 845.49,74.08 L845.45,190.14 Z M875.78,80.14 C875.78,51.19 858.78,41.08 838.1,41.08 C817.42,41.08 799.45,51.34 799.45,80.06 L799.45,184.14 C799.45,212.4 817.14,223.2 838.05,223.2 C858.5,223.2 875.73,213.09 875.73,184.14 L875.78,80.14 Z M773.27,179.31 C773.27,156.8 763.16,135.66 747.99,116.13 C737.19,102.34 733.29,92.01 733.29,81.9 L733.29,78.22 C733.29,67.88 734.9,64.43 739.95,64.43 C744.78,64.43 747.07,68.11 747.07,83.5 C747.153691,89.0388451 746.772353,94.5749428 745.93,100.05 L769.13,102.8 C770.19293,95.5750942 770.731005,88.2826709 770.74,80.98 C770.74,56.85 762.93,40.98 737.88,40.98 C711.69,40.98 702.73,58.44 702.73,81.42 L702.73,84.17 C702.73,104.39 708.73,118.87 723.64,136.79 C738.57,154.94 742.25,166.89 742.25,179.98 L742.25,184.81 C742.25,195.61 739.49,199.51 734.44,199.51 C728.92,199.51 726.44,195.61 726.44,180.67 C726.548905,174.132174 727.083369,167.608376 728.04,161.14 L705.04,158.39 C703.845974,166.606657 703.231124,174.897098 703.2,183.2 C703.2,208.7 712.62,223.2 736.29,223.2 C758.57,223.2 773.29,211.02 773.29,182.76 L773.27,179.31 Z M677.69,179.31 C677.69,156.8 667.58,135.66 652.41,116.13 C641.61,102.34 637.71,92.01 637.71,81.9 L637.71,78.22 C637.71,67.88 639.32,64.43 644.37,64.43 C649.2,64.43 651.49,68.11 651.49,83.5 C651.568387,89.0387015 651.187079,94.5743578 650.35,100.05 L673.55,102.8 C674.61293,95.5750942 675.151005,88.2826709 675.16,80.98 C675.16,56.85 667.35,40.98 642.3,40.98 C616.11,40.98 607.15,58.44 607.15,81.42 L607.15,84.17 C607.15,104.39 613.15,118.87 628.06,136.79 C642.99,154.94 646.67,166.89 646.67,179.98 L646.67,184.81 C646.67,195.61 643.91,199.51 638.86,199.51 C633.34,199.51 630.86,195.61 630.86,180.67 C630.965593,174.132392 631.496716,167.608595 632.45,161.14 L609.45,158.39 C608.255974,166.606657 607.641124,174.897098 607.61,183.2 C607.61,208.7 617.03,223.2 640.7,223.2 C662.98,223.2 677.7,211.02 677.7,182.76 L677.69,179.31 Z M549.69,190.11 C549.69,196.78 546.93,199.53 542.34,199.53 C537.28,199.53 534.34,196.53 534.34,189.88 L534.34,74.08 C534.34,67.19 537.55,64.43 542.15,64.43 C545.82,64.43 549.73,67.19 549.73,74.08 L549.69,190.11 Z M580.02,80.11 C580.02,51.16 563.02,41.05 542.34,41.05 C521.66,41.05 503.74,51.39 503.74,80.11 L503.74,184.14 C503.74,212.4 521.43,223.2 542.34,223.2 C562.79,223.2 580.02,213.09 580.02,184.14 L580.02,80.11 Z M447.24,94.99 C447.24,118.66 442.64,124.17 435.75,124.17 L431.84,124.17 L431.84,68.34 L435.98,68.34 C442.64,68.34 447.24,72.02 447.24,94.99 Z M477.34,220.9 C475.27,212.4 474.34,205.97 474.34,189.42 L474.34,176.14 C474.34,164.88 472.96,144.2 459.63,135.7 C475.03,128.12 477.1,115.02 477.1,90.44 C477.1,58.04 464,44.03 439.42,44.03 L401.29,44.03 L401.29,220.9 L431.84,220.9 L431.84,148.76 L436.21,148.76 C439.88,148.76 443.56,151.51 444.02,177.94 C444.25,189.19 444.25,194.94 444.71,210.33 C444.874171,213.957949 445.651843,217.531859 447.01,220.9 L477.34,220.9 Z M371.19,135.9 L342.01,135.9 L342.01,190.14 C342.01,196.81 339.48,200.25 334.65,200.25 C328.65,200.25 326.15,196.81 326.15,190.14 L326.15,76.14 C326.15,68.14 327.99,64.42 334.88,64.42 C339.94,64.42 343.62,66.95 343.62,83.72 C343.617974,89.5704774 343.156556,95.4117636 342.24,101.19 L365.44,103.02 C366.527285,95.5662289 367.065401,88.0426393 367.05,80.51 C367.05,49.26 353.95,40.99 333.05,40.99 C310.3,40.99 295.6,54.08 295.6,80.28 L295.6,187.82 C295.6,211.48 308.92,223.2 329.6,223.2 C343.85,223.2 351.89,220.2 358.32,212.86 L362.92,220.44 L371.19,220.44 L371.19,135.9 Z M221.84,171.27 L228.96,100.97 L234.48,171.27 L221.84,171.27 Z M247.12,43.99 L214.26,43.99 L191.51,220.44 L217.02,220.44 L219.31,195.86 L237.45,195.86 L239.74,220.44 L270.55,220.44 L247.12,43.99 Z M168.54,179.31 C168.54,156.8 158.43,135.66 143.26,116.13 C132.47,102.34 128.56,92.01 128.56,81.9 L128.56,78.22 C128.56,67.88 130.17,64.43 135.22,64.43 C140.05,64.43 142.35,68.11 142.35,83.5 C142.43109,89.0391448 142.046403,94.5753034 141.2,100.05 L164.4,102.8 C165.46293,95.5750942 166.001005,88.2826709 166.01,80.98 C166.01,56.85 158.2,40.98 133.15,40.98 C106.96,40.98 98,58.44 98,81.42 L98,84.17 C98,104.39 104,118.87 118.91,136.79 C133.84,154.94 137.52,166.89 137.52,179.98 L137.52,184.81 C137.52,195.61 134.76,199.51 129.71,199.51 C124.19,199.51 121.71,195.61 121.71,180.67 C121.804281,174.132605 122.328748,167.608504 123.28,161.14 L100.28,158.39 C99.0883849,166.613501 98.4768749,174.910656 98.45,183.22 C98.45,208.72 107.87,223.22 131.54,223.22 C153.82,223.22 168.54,211.04 168.54,182.78 L168.54,179.31 Z" id="Shape" fill="#FFFFFF"></path>
            <path d="M79.45,63.21 C77.3,63.21 67.19,36.01 80.71,18.8 C92.6,3.67 117.94,2.39 120.1,6.88 C120.34,7.38 123.41,13.82 114.85,15.14 C109.27,16 93.85,22.54 84.01,42.63 C78.65,53.6 80.76,63.19 79.45,63.21 Z" id="Path" fill="#FFFFFF" fill-rule="nonzero"></path>
            <path d="M75.95,99.89 C78.67,99.01 79.61,60.4 55.18,44.59 C33.71,30.7 1.29,40.03 0.52,46.62 C0.45,47.36 -0.65,56.77 10.69,54.74 C18.07,53.41 40.31,54.96 61.33,75.98 C72.8,87.45 74.29,100.42 75.95,99.89 Z" id="Path" fill="#EC008C" fill-rule="nonzero"></path>
            <path d="M60.94,33.45 C56.01,27.17 48.24,20.69 46.55,17.45 C41.83,8.35 44.39,1.87 49.99,0.45 C54.08,-0.62 60.23,1.45 64.17,10.87 C67.93,19.86 61.82,25.14 60.94,33.45 Z" id="Path" fill="#FFFFFF" fill-rule="nonzero"></path>
            <path d="M896.83,63.21 C898.99,63.21 909.09,36.01 895.57,18.8 C883.69,3.67 858.34,2.39 856.18,6.88 C855.94,7.38 852.87,13.82 861.44,15.14 C867.01,16 882.44,22.54 892.27,42.63 C897.63,53.6 895.52,63.19 896.83,63.21 Z" id="Path" fill="#FFFFFF" fill-rule="nonzero"></path>
            <path d="M900.34,99.89 C897.61,99.01 896.67,60.4 921.1,44.59 C942.57,30.7 974.99,40.03 975.77,46.59 C975.85,47.33 976.93,56.74 965.59,54.71 C958.22,53.38 935.97,54.93 914.96,75.95 C903.45,87.45 901.99,100.42 900.34,99.89 Z" id="Path" fill="#EC008C" fill-rule="nonzero"></path>
            <path d="M915.34,33.45 C920.28,27.17 928.04,20.69 929.73,17.45 C934.45,8.35 931.9,1.87 926.29,0.45 C922.21,-0.62 916.05,1.45 912.12,10.87 C908.36,19.86 914.45,25.14 915.34,33.45 Z" id="Path" fill="#FFFFFF" fill-rule="nonzero"></path>
        </g>
    </g>
</svg>